<svg data-v-0dd9719b="" version="1.0" xmlns="http://www.w3.org/2000/svg" xmlns:xlink="http://www.w3.org/1999/xlink" width="100%" height="100%" viewBox="0 0 340.000000 250.000000" preserveAspectRatio="xMidYMid meet" color-interpolation-filters="sRGB" style="margin: auto;"> <rect data-v-0dd9719b="" x="0" y="0" width="100%" height="100%" fill="#fff" fill-opacity="1" class="background"></rect> <rect data-v-0dd9719b="" x="0" y="0" width="100%" height="100%" fill="url(#watermark)" fill-opacity="1" class="watermarklayer"></rect> <g data-v-0dd9719b="" fill="#f29716" class="iconblsvg-g iconsvg" transform="translate(60.42931365966797,103.12152290344238)"><g class="tp-name"><g data-gra="path-name" transform="translate(0, 3.6026332887384207)"><g transform="scale(1)"><path d="M9.77 0.31L9.77 0.31Q7.32 0.31 5.91-0.49 4.51-1.29 3.93-2.81 3.35-4.33 3.35-6.43L3.35-6.43 3.35-21.78 0.76-21.78 0.76-25.8 3.35-25.8 3.35-33.52 9.46-33.52 9.46-25.8 13.39-25.8 13.39-21.78 9.46-21.78 9.46-6.96Q9.46-5.62 10.04-5.07 10.62-4.51 11.78-4.51L11.78-4.51Q12.27-4.51 12.74-4.55 13.21-4.6 13.66-4.64L13.66-4.64 13.66 0Q12.9 0.09 11.89 0.2 10.89 0.31 9.77 0.31ZM23.3 0L17.23 0 17.23-36.15 23.3-36.15 23.3-23.34Q24.64-24.68 26.22-25.44 27.81-26.2 29.68-26.2L29.68-26.2Q31.24-26.2 32.18-25.42 33.12-24.64 33.56-23.34 34.01-22.05 34.01-20.53L34.01-20.53 34.01 0 27.94 0 27.94-19.33Q27.94-20.49 27.58-21.11 27.23-21.74 26.2-21.74L26.2-21.74Q25.57-21.74 24.79-21.38 24.01-21.02 23.3-20.44L23.3-20.44 23.3 0ZM44.68 0L38.61 0 38.61-25.8 44.68-25.8 44.68-21.82Q46.02-24.1 47.35-25.11 48.69-26.11 50.3-26.11L50.3-26.11Q50.57-26.11 50.77-26.09 50.97-26.06 51.24-26.02L51.24-26.02 51.24-19.73Q50.7-19.95 50.05-20.11 49.41-20.26 48.74-20.26L48.74-20.26Q47.53-20.26 46.55-19.68 45.57-19.1 44.68-17.76L44.68-17.76 44.68 0ZM60.48 0L54.41 0 54.41-25.8 60.48-25.8 60.48 0ZM60.48-29.9L54.41-29.9 54.41-34.95 60.48-34.95 60.48-29.9ZM72.62 0L66.55 0 66.55-21.56 63.78-21.56 63.78-25.8 66.55-25.8 66.55-27.45Q66.55-29.77 66.97-31.49 67.39-33.21 68.76-34.14 70.12-35.08 72.88-35.08L72.88-35.08Q73.73-35.08 74.49-35.01 75.25-34.95 76.19-34.81L76.19-34.81 76.19-30.3Q75.83-30.39 75.36-30.46 74.89-30.53 74.49-30.53L74.49-30.53Q73.42-30.53 73.02-29.86 72.62-29.19 72.62-27.89L72.62-27.89 72.62-25.8 76.19-25.8 76.19-21.56 72.62-21.56 72.62 0ZM86.32 0.31L86.32 0.31Q83.86 0.31 82.46-0.49 81.05-1.29 80.47-2.81 79.89-4.33 79.89-6.43L79.89-6.43 79.89-21.78 77.3-21.78 77.3-25.8 79.89-25.8 79.89-33.52 86.01-33.52 86.01-25.8 89.93-25.8 89.93-21.78 86.01-21.78 86.01-6.96Q86.01-5.62 86.59-5.07 87.17-4.51 88.33-4.51L88.33-4.51Q88.82-4.51 89.29-4.55 89.75-4.6 90.2-4.64L90.2-4.64 90.2 0Q89.44 0.09 88.44 0.2 87.43 0.31 86.32 0.31Z" transform="translate(-0.7599999904632568, 36.150001525878906)"></path></g></g> <g transform="translate(92.43999481201172, 0)"><g><g class="imagesvg"><g><rect fill="#f29716" fill-opacity="0" stroke-width="2" x="0" y="0" width="37.831386692564905" height="43.75695330977458" class="image-rect"></rect> <svg x="0" y="0" width="37.831386692564905" height="43.75695330977458" filtersec="colorsb6604528586" class="image-svg-svg primary" style="overflow: visible;"><svg version="1.1" id="图层_1" xmlns="http://www.w3.org/2000/svg" xmlns:xlink="http://www.w3.org/1999/xlink" x="0px" y="0px" viewBox="3.5199999809265137 0 102.9800033569336 119.11000061035156" enable-background="new 0 0 109 120" xml:space="preserve">
<polygon fill="#F29716" points="3.52,31.23 3.52,89.38 55.01,119.11 "></polygon>
<polygon fill="#FBDF5E" points="55.01,87.88 55.01,29.73 3.52,0 "></polygon>
<polygon fill="#00579D" points="55.01,87.01 55.01,30.64 106.5,1.83 "></polygon>
<polygon fill="#66BC8B" points="106.5,32.1 106.5,88.46 55.01,117.28 "></polygon>
</svg></svg> <!----></g></g></g></g> <g data-gra="path-name-1" fill="#f29716" transform="translate(133.27138137817383, 3.6026332887384207)"><g transform="scale(1)"><path d="M9.33 0.4L9.33 0.4Q6.07 0.4 3.97-1.34 1.87-3.08 0.98-6.43L0.98-6.43 5.49-8.17Q6.03-6.07 6.92-4.95 7.81-3.84 9.24-3.84L9.24-3.84Q10.31-3.84 10.85-4.37 11.38-4.91 11.38-5.85L11.38-5.85Q11.38-6.92 10.73-7.79 10.09-8.66 8.52-9.95L8.52-9.95 5.4-12.59Q3.7-14.06 2.66-15.6 1.61-17.14 1.61-19.46L1.61-19.46Q1.61-21.56 2.57-23.05 3.53-24.55 5.2-25.37 6.87-26.2 8.93-26.2L8.93-26.2Q12.05-26.2 13.95-24.35 15.84-22.49 16.38-19.5L16.38-19.5 12.41-17.81Q12.18-18.88 11.76-19.79 11.34-20.71 10.67-21.29 10-21.87 9.1-21.87L9.1-21.87Q8.17-21.87 7.61-21.29 7.05-20.71 7.05-19.82L7.05-19.82Q7.05-19.06 7.7-18.25 8.35-17.45 9.55-16.42L9.55-16.42 12.72-13.57Q13.75-12.68 14.68-11.65 15.62-10.62 16.25-9.35 16.87-8.08 16.87-6.43L16.87-6.43Q16.87-4.2 15.87-2.68 14.86-1.16 13.14-0.38 11.43 0.4 9.33 0.4ZM27.63 0.31L27.63 0.31Q25.17 0.31 23.77-0.49 22.36-1.29 21.78-2.81 21.2-4.33 21.2-6.43L21.2-6.43 21.2-21.78 18.61-21.78 18.61-25.8 21.2-25.8 21.2-33.52 27.31-33.52 27.31-25.8 31.24-25.8 31.24-21.78 27.31-21.78 27.31-6.96Q27.31-5.62 27.89-5.07 28.48-4.51 29.64-4.51L29.64-4.51Q30.13-4.51 30.6-4.55 31.06-4.6 31.51-4.64L31.51-4.64 31.51 0Q30.75 0.09 29.75 0.2 28.74 0.31 27.63 0.31ZM42.8 0.4L42.8 0.4Q39.99 0.4 38.16-0.65 36.33-1.7 35.42-3.7 34.5-5.71 34.5-8.57L34.5-8.57 34.5-17.23Q34.5-20.08 35.42-22.09 36.33-24.1 38.16-25.15 39.99-26.2 42.8-26.2L42.8-26.2Q45.61-26.2 47.47-25.15 49.32-24.1 50.23-22.09 51.15-20.08 51.15-17.23L51.15-17.23 51.15-8.57Q51.15-5.71 50.23-3.7 49.32-1.7 47.47-0.65 45.61 0.4 42.8 0.4ZM42.85-3.79L42.85-3.79Q43.87-3.79 44.36-4.37 44.85-4.95 44.99-5.96 45.12-6.96 45.12-8.17L45.12-8.17 45.12-17.63Q45.12-18.83 44.99-19.82 44.85-20.8 44.36-21.4 43.87-22 42.85-22L42.85-22Q41.82-22 41.33-21.4 40.84-20.8 40.68-19.82 40.53-18.83 40.53-17.63L40.53-17.63 40.53-8.17Q40.53-6.96 40.68-5.96 40.84-4.95 41.33-4.37 41.82-3.79 42.85-3.79ZM61.5 0L55.43 0 55.43-25.8 61.5-25.8 61.5-21.82Q62.84-24.1 64.18-25.11 65.52-26.11 67.13-26.11L67.13-26.11Q67.39-26.11 67.59-26.09 67.8-26.06 68.06-26.02L68.06-26.02 68.06-19.73Q67.53-19.95 66.88-20.11 66.23-20.26 65.56-20.26L65.56-20.26Q64.36-20.26 63.38-19.68 62.4-19.1 61.5-17.76L61.5-17.76 61.5 0ZM78.86 0.4L78.86 0.4Q75.96 0.4 74.13-0.69 72.3-1.79 71.43-3.91 70.56-6.03 70.56-9.02L70.56-9.02 70.56-16.78Q70.56-19.86 71.43-21.96 72.3-24.06 74.16-25.13 76.01-26.2 78.86-26.2L78.86-26.2Q81.94-26.2 83.66-25.04 85.38-23.88 86.12-21.67 86.85-19.46 86.85-16.29L86.85-16.29 86.85-12.63 76.59-12.63 76.59-7.54Q76.59-6.29 76.83-5.49 77.08-4.69 77.61-4.33 78.15-3.97 78.91-3.97L78.91-3.97Q79.71-3.97 80.2-4.35 80.69-4.73 80.92-5.47 81.14-6.2 81.14-7.32L81.14-7.32 81.14-9.46 86.81-9.46 86.81-7.72Q86.81-3.79 84.85-1.7 82.88 0.4 78.86 0.4ZM76.59-17.41L76.59-15.62 81.14-15.62 81.14-18.08Q81.14-19.41 80.92-20.24 80.69-21.07 80.2-21.45 79.71-21.82 78.82-21.82L78.82-21.82Q78.02-21.82 77.53-21.42 77.03-21.02 76.81-20.08 76.59-19.15 76.59-17.41L76.59-17.41Z" transform="translate(-0.9800000190734863, 36.150001525878906)"></path></g></g></g> <!----></g><defs v-gra="od"></defs></svg></div> <button data-v-602dc72a="" type="button" class="el-button [&amp;>span]:items-center [&amp;>span]:gap-1 el-tooltip item el-button--text favourite-button" data-v-e5899b92=""><!----><!----><span><span data-v-602dc72a="" class="fa fa-heart-o"></span>
	  LIKE
	</span></button> <div data-v-602dc72a="" data-v-e5899b92="" class="logo-actions"><div data-v-972be5b4="" data-v-602dc72a="" class="display-actions display-actions--size-small" data-v-e5899b92=""><a data-v-602dc72a="" data-v-972be5b4="" href="javascript:;" class="display-action display-action--preview"><span data-v-602dc72a="" data-v-972be5b4="" class="display-action-text">Preview</span></a><a data-v-972be5b4="" href="javascript:;" class="display-action display-action--edit"><span data-v-972be5b4="" class="display-action-text">Edit</span></a><a data-v-972be5b4="" href="javascript:;" class="display-action display-action--save" style="display: none;"><span data-v-972be5b4="" class="display-action-text">Save</span></a><a data-v-972be5b4="" href="javascript:;" class="display-action display-action--buy"><span data-v-972be5b4="" class="display-action-text">Buy</span></a><div data-v-0dd9719b="" data-v-972be5b4="" class="svg-card" style="opacity: 0; position: fixed; visibility: hidden;"><div data-v-0dd9719b="" class="ShowPriceDetail" style="display: none;"><img data-v-0dd9719b="" src="/img/logo/moneydetail.png">$<span data-v-0dd9719b="">0</span> <p data-v-0dd9719b="" class="S_ShareAndGetFreeLogo"><img data-v-0dd9719b="" src="/img/preview/ShareAndGetFreeLogo-icon.png" class="ShareAndGetFreeLogo-icon"><img data-v-0dd9719b="" src="/img/logo/2-black.png" class="queen"><b data-v-0dd9719b="">Exclusive Symbol</b><br data-v-0dd9719b="">Copyrighted; Will be removed from our library when purchased.
</p></div> <svg data-v-0dd9719b="" version="1.0" xmlns="http://www.w3.org/2000/svg" xmlns:xlink="http://www.w3.org/1999/xlink" width="100%" height="100%" viewBox="0 0 340.000000 250.000000" preserveAspectRatio="xMidYMid meet" color-interpolation-filters="sRGB" style="margin: auto;"> <rect data-v-0dd9719b="" x="0" y="0" width="100%" height="100%" fill="#fff" fill-opacity="1" class="background"></rect> <rect data-v-0dd9719b="" x="0" y="0" width="100%" height="100%" fill="url(#watermark)" fill-opacity="1" class="watermarklayer"></rect> <g data-v-0dd9719b="" fill="#f29716" class="iconblsvg-g iconsvg" transform="translate(60.42931365966797,103.12152290344238)"><g class="tp-name"><g data-gra="path-name" transform="translate(0, 3.6026332887384207)"><g transform="scale(1)"><path d="M9.77 0.31L9.77 0.31Q7.32 0.31 5.91-0.49 4.51-1.29 3.93-2.81 3.35-4.33 3.35-6.43L3.35-6.43 3.35-21.78 0.76-21.78 0.76-25.8 3.35-25.8 3.35-33.52 9.46-33.52 9.46-25.8 13.39-25.8 13.39-21.78 9.46-21.78 9.46-6.96Q9.46-5.62 10.04-5.07 10.62-4.51 11.78-4.51L11.78-4.51Q12.27-4.51 12.74-4.55 13.21-4.6 13.66-4.64L13.66-4.64 13.66 0Q12.9 0.09 11.89 0.2 10.89 0.31 9.77 0.31ZM23.3 0L17.23 0 17.23-36.15 23.3-36.15 23.3-23.34Q24.64-24.68 26.22-25.44 27.81-26.2 29.68-26.2L29.68-26.2Q31.24-26.2 32.18-25.42 33.12-24.64 33.56-23.34 34.01-22.05 34.01-20.53L34.01-20.53 34.01 0 27.94 0 27.94-19.33Q27.94-20.49 27.58-21.11 27.23-21.74 26.2-21.74L26.2-21.74Q25.57-21.74 24.79-21.38 24.01-21.02 23.3-20.44L23.3-20.44 23.3 0ZM44.68 0L38.61 0 38.61-25.8 44.68-25.8 44.68-21.82Q46.02-24.1 47.35-25.11 48.69-26.11 50.3-26.11L50.3-26.11Q50.57-26.11 50.77-26.09 50.97-26.06 51.24-26.02L51.24-26.02 51.24-19.73Q50.7-19.95 50.05-20.11 49.41-20.26 48.74-20.26L48.74-20.26Q47.53-20.26 46.55-19.68 45.57-19.1 44.68-17.76L44.68-17.76 44.68 0ZM60.48 0L54.41 0 54.41-25.8 60.48-25.8 60.48 0ZM60.48-29.9L54.41-29.9 54.41-34.95 60.48-34.95 60.48-29.9ZM72.62 0L66.55 0 66.55-21.56 63.78-21.56 63.78-25.8 66.55-25.8 66.55-27.45Q66.55-29.77 66.97-31.49 67.39-33.21 68.76-34.14 70.12-35.08 72.88-35.08L72.88-35.08Q73.73-35.08 74.49-35.01 75.25-34.95 76.19-34.81L76.19-34.81 76.19-30.3Q75.83-30.39 75.36-30.46 74.89-30.53 74.49-30.53L74.49-30.53Q73.42-30.53 73.02-29.86 72.62-29.19 72.62-27.89L72.62-27.89 72.62-25.8 76.19-25.8 76.19-21.56 72.62-21.56 72.62 0ZM86.32 0.31L86.32 0.31Q83.86 0.31 82.46-0.49 81.05-1.29 80.47-2.81 79.89-4.33 79.89-6.43L79.89-6.43 79.89-21.78 77.3-21.78 77.3-25.8 79.89-25.8 79.89-33.52 86.01-33.52 86.01-25.8 89.93-25.8 89.93-21.78 86.01-21.78 86.01-6.96Q86.01-5.62 86.59-5.07 87.17-4.51 88.33-4.51L88.33-4.51Q88.82-4.51 89.29-4.55 89.75-4.6 90.2-4.64L90.2-4.64 90.2 0Q89.44 0.09 88.44 0.2 87.43 0.31 86.32 0.31Z" transform="translate(-0.7599999904632568, 36.150001525878906)"></path></g></g> <g transform="translate(92.43999481201172, 0)"><g><g class="imagesvg"><g><rect fill="#f29716" fill-opacity="0" stroke-width="2" x="0" y="0" width="37.831386692564905" height="43.75695330977458" class="image-rect"></rect> <svg x="0" y="0" width="37.831386692564905" height="43.75695330977458" filtersec="colorsb7934261306" class="image-svg-svg primary" style="overflow: visible;"><svg version="1.1" id="图层_1" xmlns="http://www.w3.org/2000/svg" xmlns:xlink="http://www.w3.org/1999/xlink" x="0px" y="0px" viewBox="3.5199999809265137 0 102.9800033569336 119.11000061035156" enable-background="new 0 0 109 120" xml:space="preserve">
<polygon fill="#F29716" points="3.52,31.23 3.52,89.38 55.01,119.11 "></polygon>
<polygon fill="#FBDF5E" points="55.01,87.88 55.01,29.73 3.52,0 "></polygon>
<polygon fill="#00579D" points="55.01,87.01 55.01,30.64 106.5,1.83 "></polygon>
<polygon fill="#66BC8B" points="106.5,32.1 106.5,88.46 55.01,117.28 "></polygon>
</svg></svg> <!----></g></g></g></g> <g data-gra="path-name-1" fill="#f29716" transform="translate(133.27138137817383, 3.6026332887384207)"><g transform="scale(1)"><path d="M9.33 0.4L9.33 0.4Q6.07 0.4 3.97-1.34 1.87-3.08 0.98-6.43L0.98-6.43 5.49-8.17Q6.03-6.07 6.92-4.95 7.81-3.84 9.24-3.84L9.24-3.84Q10.31-3.84 10.85-4.37 11.38-4.91 11.38-5.85L11.38-5.85Q11.38-6.92 10.73-7.79 10.09-8.66 8.52-9.95L8.52-9.95 5.4-12.59Q3.7-14.06 2.66-15.6 1.61-17.14 1.61-19.46L1.61-19.46Q1.61-21.56 2.57-23.05 3.53-24.55 5.2-25.37 6.87-26.2 8.93-26.2L8.93-26.2Q12.05-26.2 13.95-24.35 15.84-22.49 16.38-19.5L16.38-19.5 12.41-17.81Q12.18-18.88 11.76-19.79 11.34-20.71 10.67-21.29 10-21.87 9.1-21.87L9.1-21.87Q8.17-21.87 7.61-21.29 7.05-20.71 7.05-19.82L7.05-19.82Q7.05-19.06 7.7-18.25 8.35-17.45 9.55-16.42L9.55-16.42 12.72-13.57Q13.75-12.68 14.68-11.65 15.62-10.62 16.25-9.35 16.87-8.08 16.87-6.43L16.87-6.43Q16.87-4.2 15.87-2.68 14.86-1.16 13.14-0.38 11.43 0.4 9.33 0.4ZM27.63 0.31L27.63 0.31Q25.17 0.31 23.77-0.49 22.36-1.29 21.78-2.81 21.2-4.33 21.2-6.43L21.2-6.43 21.2-21.78 18.61-21.78 18.61-25.8 21.2-25.8 21.2-33.52 27.31-33.52 27.31-25.8 31.24-25.8 31.24-21.78 27.31-21.78 27.31-6.96Q27.31-5.62 27.89-5.07 28.48-4.51 29.64-4.51L29.64-4.51Q30.13-4.51 30.6-4.55 31.06-4.6 31.51-4.64L31.51-4.64 31.51 0Q30.75 0.09 29.75 0.2 28.74 0.31 27.63 0.31ZM42.8 0.4L42.8 0.4Q39.99 0.4 38.16-0.65 36.33-1.7 35.42-3.7 34.5-5.71 34.5-8.57L34.5-8.57 34.5-17.23Q34.5-20.08 35.42-22.09 36.33-24.1 38.16-25.15 39.99-26.2 42.8-26.2L42.8-26.2Q45.61-26.2 47.47-25.15 49.32-24.1 50.23-22.09 51.15-20.08 51.15-17.23L51.15-17.23 51.15-8.57Q51.15-5.71 50.23-3.7 49.32-1.7 47.47-0.65 45.61 0.4 42.8 0.4ZM42.85-3.79L42.85-3.79Q43.87-3.79 44.36-4.37 44.85-4.95 44.99-5.96 45.12-6.96 45.12-8.17L45.12-8.17 45.12-17.63Q45.12-18.83 44.99-19.82 44.85-20.8 44.36-21.4 43.87-22 42.85-22L42.85-22Q41.82-22 41.33-21.4 40.84-20.8 40.68-19.82 40.53-18.83 40.53-17.63L40.53-17.63 40.53-8.17Q40.53-6.96 40.68-5.96 40.84-4.95 41.33-4.37 41.82-3.79 42.85-3.79ZM61.5 0L55.43 0 55.43-25.8 61.5-25.8 61.5-21.82Q62.84-24.1 64.18-25.11 65.52-26.11 67.13-26.11L67.13-26.11Q67.39-26.11 67.59-26.09 67.8-26.06 68.06-26.02L68.06-26.02 68.06-19.73Q67.53-19.95 66.88-20.11 66.23-20.26 65.56-20.26L65.56-20.26Q64.36-20.26 63.38-19.68 62.4-19.1 61.5-17.76L61.5-17.76 61.5 0ZM78.86 0.4L78.86 0.4Q75.96 0.4 74.13-0.69 72.3-1.79 71.43-3.91 70.56-6.03 70.56-9.02L70.56-9.02 70.56-16.78Q70.56-19.86 71.43-21.96 72.3-24.06 74.16-25.13 76.01-26.2 78.86-26.2L78.86-26.2Q81.94-26.2 83.66-25.04 85.38-23.88 86.12-21.67 86.85-19.46 86.85-16.29L86.85-16.29 86.85-12.63 76.59-12.63 76.59-7.54Q76.59-6.29 76.83-5.49 77.08-4.69 77.61-4.33 78.15-3.97 78.91-3.97L78.91-3.97Q79.71-3.97 80.2-4.35 80.69-4.73 80.92-5.47 81.14-6.2 81.14-7.32L81.14-7.32 81.14-9.46 86.81-9.46 86.81-7.72Q86.81-3.79 84.85-1.7 82.88 0.4 78.86 0.4ZM76.59-17.41L76.59-15.62 81.14-15.62 81.14-18.08Q81.14-19.41 80.92-20.24 80.69-21.07 80.2-21.45 79.71-21.82 78.82-21.82L78.82-21.82Q78.02-21.82 77.53-21.42 77.03-21.02 76.81-20.08 76.59-19.15 76.59-17.41L76.59-17.41Z" transform="translate(-0.9800000190734863, 36.150001525878906)"></path></g></g></g> <!----></g><defs v-gra="od"></defs></svg>